<svg width="133" height="34" viewBox="0 0 133 34" fill="none" xmlns="http://www.w3.org/2000/svg">
<path d="M45.076 26.3908C46.4172 27.052 48.0229 27.3826 49.8931 27.3826C51.8577 27.3826 53.5484 27.0142 54.9651 26.2775C56.3819 25.5408 57.4965 24.5584 58.3088 23.3306C59.1211 22.1027 59.6216 20.752 59.8106 19.2786H55.7585C55.5319 20.6576 54.8801 21.7343 53.8034 22.5088C52.7455 23.2645 51.4421 23.6423 49.8931 23.6423C48.8352 23.6423 47.9001 23.4628 47.0878 23.1039C46.2944 22.745 45.6238 22.2444 45.076 21.6021C44.5282 20.9409 44.1126 20.1759 43.8292 19.3069C43.5647 18.4379 43.4325 17.4934 43.4325 16.4733C43.4325 15.4155 43.5647 14.452 43.8292 13.5831C44.1126 12.7141 44.5187 11.9585 45.0476 11.3162C45.5766 10.674 46.2378 10.1828 47.0311 9.84278C47.8245 9.48386 48.7313 9.3044 49.7514 9.3044C50.7526 9.3044 51.6499 9.47441 52.4433 9.81444C53.2367 10.1356 53.8884 10.6267 54.3984 11.2879C54.9274 11.9302 55.2674 12.7236 55.4185 13.6681H59.4705C59.3005 12.0435 58.7999 10.6267 57.9687 9.41774C57.1376 8.18986 56.023 7.24534 54.6251 6.58417C53.2461 5.90412 51.6215 5.56409 49.7514 5.56409C47.9568 5.56409 46.3983 5.87578 45.076 6.49916C43.7725 7.10366 42.6958 7.91595 41.8457 8.93603C40.9956 9.95612 40.3628 11.0895 39.9472 12.3363C39.5505 13.5831 39.3522 14.8488 39.3522 16.1333V16.7567C39.3522 17.909 39.5505 19.1085 39.9472 20.3553C40.3439 21.6021 40.9579 22.7544 41.789 23.8123C42.6391 24.8701 43.7348 25.7297 45.076 26.3908Z" fill="#101011"/>
<path fill-rule="evenodd" clip-rule="evenodd" d="M70.3182 24.974C70.5129 24.6439 70.6735 24.2796 70.7999 23.8811V26.8442H73.9169V17.2951C73.9169 15.8594 73.643 14.6976 73.0951 13.8098C72.5662 12.9219 71.7728 12.2702 70.7149 11.8546C69.676 11.439 68.3631 11.2312 66.7763 11.2312C66.2662 11.2312 65.7184 11.2407 65.1328 11.2596C64.5661 11.2596 64.0088 11.2785 63.461 11.3162C62.9132 11.354 62.422 11.3918 61.9875 11.4296V14.7732C62.5165 14.7354 63.1115 14.7071 63.7727 14.6882C64.4527 14.6504 65.1234 14.6221 65.7845 14.6032C66.4457 14.5843 67.0124 14.5748 67.4847 14.5748C68.3914 14.5748 69.062 14.7921 69.4965 15.2266C69.931 15.661 70.1482 16.3222 70.1482 17.2101V17.3517H67.003C65.6428 17.3517 64.4527 17.5312 63.4327 17.8901C62.4315 18.249 61.6475 18.7874 61.0808 19.5052C60.533 20.2231 60.2591 21.1487 60.2591 22.2821C60.2591 23.3211 60.4857 24.209 60.9391 24.9457C61.4114 25.6824 62.0631 26.2491 62.8943 26.6458C63.7443 27.0425 64.7266 27.2409 65.8412 27.2409C66.9179 27.2409 67.8247 27.052 68.5614 26.6742C69.317 26.2775 69.9026 25.7108 70.3182 24.974ZM69.6098 23.1322C69.931 22.6411 70.1104 21.9799 70.1482 21.1487V19.7036H66.9463C66.0395 19.7036 65.3406 19.9303 64.8494 20.3837C64.3772 20.8181 64.141 21.3848 64.141 22.0838C64.141 22.7827 64.3772 23.3495 64.8494 23.7839C65.3406 24.2184 66.0395 24.4357 66.9463 24.4357C67.4941 24.4357 67.9947 24.3412 68.4481 24.1523C68.9203 23.9445 69.3076 23.6045 69.6098 23.1322Z" fill="#101011"/>
<path d="M83.5479 27.3826C82.2067 27.3826 81.0449 27.1559 80.0626 26.7025C79.0992 26.2491 78.2869 25.6446 77.6257 24.889C76.9835 24.1334 76.5018 23.2833 76.1806 22.3388C75.8595 21.3943 75.6989 20.4309 75.6989 19.4486V18.9102C75.6989 17.8712 75.8595 16.8795 76.1806 15.935C76.5207 14.9715 77.0212 14.1215 77.6824 13.3847C78.3436 12.6291 79.1559 12.0341 80.1193 11.5996C81.1016 11.1462 82.235 10.9195 83.5196 10.9195C84.8608 10.9195 86.0603 11.184 87.1182 11.7129C88.1761 12.223 89.0167 12.9408 89.6401 13.8664C90.2824 14.7921 90.6413 15.8688 90.7168 17.0967H86.8915C86.7971 16.3033 86.457 15.6421 85.8714 15.1132C85.3047 14.5843 84.5208 14.3198 83.5196 14.3198C82.6506 14.3198 81.9233 14.5276 81.3377 14.9432C80.771 15.3588 80.346 15.9349 80.0626 16.6717C79.7793 17.3895 79.6376 18.2207 79.6376 19.1652C79.6376 20.072 79.7698 20.8937 80.0343 21.6304C80.3176 22.3672 80.7427 22.9433 81.3094 23.3589C81.895 23.7745 82.6412 23.9823 83.5479 23.9823C84.228 23.9823 84.8136 23.8595 85.3047 23.6139C85.7959 23.3683 86.1831 23.0283 86.4665 22.5938C86.7687 22.1594 86.9576 21.6682 87.0332 21.1204H90.8585C90.7829 22.3672 90.4146 23.4628 89.7534 24.4073C89.1111 25.333 88.2516 26.0602 87.1749 26.5892C86.117 27.1181 84.908 27.3826 83.5479 27.3826Z" fill="#101011"/>
<path d="M95.7706 26.5042C96.6962 26.8631 97.8674 27.0425 99.2842 27.0425H101.494V23.6706H99.0858C98.3302 23.6706 97.7446 23.4722 97.329 23.0755C96.9323 22.66 96.734 22.0744 96.734 21.3187L96.7479 14.3482H101.494V11.4579H96.7537L96.7623 7.12255H93.0787L93.0699 11.4579H90.6135V14.3482H93.064L93.0503 21.0637C93.0503 22.5561 93.277 23.7462 93.7304 24.634C94.1838 25.503 94.8638 26.1264 95.7706 26.5042Z" fill="#101011"/>
<path d="M108.625 27.3259C106.85 27.3259 105.471 26.7403 104.488 25.5691C103.525 24.3979 103.043 22.66 103.043 20.3553V11.4296H106.982V20.6953C106.982 21.6399 107.246 22.3955 107.775 22.9622C108.304 23.51 109.022 23.7839 109.929 23.7839C110.836 23.7839 111.572 23.4911 112.139 22.9055C112.725 22.3199 113.017 21.5265 113.017 20.5253V11.4296H116.956V26.8442H113.839V23.2612C113.76 23.5871 113.665 23.8936 113.556 24.1806C113.159 25.2196 112.564 26.0036 111.771 26.5325C110.977 27.0614 109.986 27.3259 108.795 27.3259H108.625Z" fill="#101011"/>
<path d="M120.659 25.9941C121.868 26.882 123.53 27.3259 125.646 27.3259C127.006 27.3259 128.187 27.1181 129.188 26.7025C130.189 26.2869 130.964 25.7108 131.511 24.974C132.078 24.2184 132.361 23.3306 132.361 22.3105C132.361 20.9315 131.842 19.8358 130.803 19.0235C129.783 18.2113 128.366 17.7107 126.553 17.5217L125.193 17.3801C124.361 17.2856 123.757 17.1062 123.379 16.8417C123.02 16.5772 122.841 16.1994 122.841 15.7083C122.841 15.1982 123.067 14.7826 123.521 14.4615C123.974 14.1404 124.616 13.9798 125.448 13.9798C126.373 13.9798 127.082 14.1687 127.573 14.5465C128.064 14.9243 128.328 15.3777 128.366 15.9066H131.908C131.851 14.3009 131.237 13.0825 130.066 12.2513C128.895 11.4201 127.365 11.0045 125.476 11.0045C124.267 11.0045 123.19 11.1934 122.246 11.5713C121.32 11.9302 120.593 12.4686 120.064 13.1864C119.535 13.9042 119.27 14.7921 119.27 15.8499C119.27 17.1723 119.733 18.2301 120.659 19.0235C121.584 19.8169 122.907 20.3081 124.626 20.497L125.986 20.6387C127.006 20.7331 127.724 20.9315 128.139 21.2337C128.574 21.536 128.791 21.9421 128.791 22.4522C128.791 23.0378 128.508 23.5006 127.941 23.8406C127.393 24.1806 126.647 24.3507 125.703 24.3507C124.569 24.3507 123.738 24.1334 123.209 23.6989C122.68 23.2645 122.387 22.7827 122.331 22.2538H118.789C118.845 23.8406 119.469 25.0874 120.659 25.9941Z" fill="#101011"/>
<path fill-rule="evenodd" clip-rule="evenodd" d="M17.0216 0C7.63277 0 0.0216064 7.61116 0.0216064 17C0.0216064 26.3888 7.63277 34 17.0216 34C26.4104 34 34.0216 26.3888 34.0216 17C34.0216 7.61116 26.4104 0 17.0216 0ZM3.83357 17C3.83357 9.71645 9.73806 3.81197 17.0216 3.81197C24.3052 3.81197 30.2096 9.71645 30.2096 17C30.2096 23.6471 25.2919 29.1457 18.8963 30.0558V27.1468L22.2812 25.8972C24.2375 25.175 25.5367 23.3105 25.5367 21.2252V15.4975C25.5367 14.4448 24.6833 13.5915 23.6307 13.5915C22.578 13.5915 21.7247 14.4448 21.7247 15.4975V21.2252C21.7247 21.7144 21.4199 22.1517 20.9611 22.3211L18.8963 23.0834V7.99659C18.8963 6.94394 18.0429 6.09061 16.9903 6.09061C15.9376 6.09061 15.0843 6.94394 15.0843 7.99659V16.1746L13.0812 15.4351C12.6223 15.2657 12.3175 14.8283 12.3175 14.3392V11.87C12.3175 10.8174 11.4642 9.96406 10.4116 9.96406C9.35892 9.96406 8.50558 10.8174 8.50558 11.87V14.3392C8.50558 16.4245 9.80477 18.289 11.761 19.0112L15.0843 20.238V30.0467C8.71921 29.1097 3.83357 23.6254 3.83357 17Z" fill="#101011"/>
</svg>
