<svg width="120" height="34" viewBox="0 0 120 34" fill="none" xmlns="http://www.w3.org/2000/svg">
<path d="M56.3176 20.5167V32.5818H60.2377V19.7327C60.2377 18.1066 59.8893 16.6693 59.1924 15.4207C58.4955 14.1721 57.5372 13.1993 56.3176 12.5024C55.1271 11.8055 53.7478 11.457 52.1798 11.457C50.6118 11.457 49.2035 11.82 47.9548 12.546C47.0143 13.0709 46.2303 13.7441 45.6028 14.5657V1.48267H41.6827V32.5818H45.6028V20.5167C45.6028 19.4714 45.8351 18.5422 46.2997 17.7291C46.7643 16.9161 47.4031 16.2773 48.2162 15.8127C49.0292 15.3481 49.9584 15.1158 51.0038 15.1158C52.5718 15.1158 53.8495 15.6239 54.8367 16.6402C55.824 17.6566 56.3176 18.9487 56.3176 20.5167Z" fill="#101011"/>
<path d="M67.1131 31.8849C68.4779 32.6399 70.0169 33.0174 71.7301 33.0174C73.4723 33.0174 74.9968 32.6399 76.3035 31.8849C77.6392 31.1009 78.6846 30.0265 79.4395 28.6618C80.1945 27.297 80.572 25.7145 80.572 23.9141V11.8926H76.6519V23.7399C76.6519 25.4531 76.2164 26.8034 75.3453 27.7906C74.4741 28.7489 73.2691 29.228 71.7301 29.228C70.7138 29.228 69.8281 29.0102 69.0732 28.5746C68.3182 28.1391 67.7374 27.5148 67.3309 26.7017C66.9534 25.8596 66.7647 24.8724 66.7647 23.7399V11.8926H62.8446V23.9141C62.8446 25.7145 63.2221 27.297 63.9771 28.6618C64.732 30.0265 65.7774 31.1009 67.1131 31.8849Z" fill="#101011"/>
<path fill-rule="evenodd" clip-rule="evenodd" d="M93.2305 33.0174C91.1689 33.0174 89.3105 32.5528 87.6553 31.6236C86.0002 30.6654 84.6935 29.3732 83.7353 27.7471C82.777 26.121 82.2979 24.2771 82.2979 22.2154C82.2979 20.1828 82.7625 18.3535 83.6917 16.7274C84.65 15.1013 85.9276 13.8236 87.5247 12.8944C89.1508 11.9362 90.9656 11.457 92.9692 11.457C94.8857 11.457 96.5699 11.8926 98.0217 12.7637C99.5026 13.6349 100.65 14.8399 101.463 16.3789C102.305 17.9179 102.726 19.6601 102.726 21.6057C102.726 21.896 102.711 22.2154 102.682 22.5639C102.653 22.8833 102.595 23.2608 102.508 23.6964H86.3056C86.4435 24.502 86.6902 25.2425 87.0456 25.9177C87.6263 26.9921 88.4539 27.8342 89.5283 28.444C90.6026 29.0247 91.8367 29.3151 93.2305 29.3151C94.392 29.3151 95.4519 29.1118 96.4101 28.7053C97.3974 28.2988 98.2395 27.689 98.9364 26.876L101.463 29.4458C100.475 30.6073 99.2558 31.4929 97.8039 32.1027C96.3811 32.7125 94.8566 33.0174 93.2305 33.0174ZM87.002 18.3825C86.6765 18.9992 86.447 19.6816 86.3136 20.4296H98.9051C98.7981 19.5733 98.5762 18.8184 98.2395 18.1647C97.7459 17.1774 97.049 16.4225 96.1488 15.8998C95.2487 15.3481 94.1597 15.0722 92.8821 15.0722C91.5464 15.0722 90.3703 15.3626 89.354 15.9433C88.3377 16.5241 87.5537 17.3371 87.002 18.3825Z" fill="#101011"/>
<path d="M105.258 31.2751C106.129 31.8268 107.073 32.2624 108.089 32.5818C109.134 32.8722 110.238 33.0174 111.399 33.0174C113.722 33.0174 115.566 32.4512 116.931 31.3187C118.325 30.1862 119.022 28.6472 119.022 26.7017C119.022 25.4241 118.746 24.3933 118.194 23.6092C117.671 22.8252 116.989 22.2009 116.147 21.7363C115.305 21.2717 114.419 20.9088 113.49 20.6474C112.561 20.357 111.661 20.0812 110.789 19.8198C109.947 19.5585 109.265 19.2391 108.742 18.8616C108.22 18.4841 107.958 17.9469 107.958 17.25C107.958 16.5531 108.249 16.0159 108.829 15.6384C109.439 15.2319 110.31 15.0287 111.443 15.0287C112.517 15.0287 113.475 15.2319 114.318 15.6384C115.189 16.045 115.915 16.6257 116.495 17.3807L119.022 14.8544C118.209 13.722 117.163 12.8799 115.886 12.3282C114.637 11.7474 113.2 11.457 111.574 11.457C110.035 11.457 108.713 11.7039 107.61 12.1975C106.535 12.6911 105.693 13.4026 105.084 14.3318C104.474 15.2319 104.169 16.3063 104.169 17.5549C104.169 18.8035 104.43 19.8053 104.953 20.5603C105.505 21.3153 106.202 21.9105 107.044 22.3461C107.886 22.7817 108.771 23.1446 109.701 23.435C110.659 23.6964 111.559 23.9722 112.401 24.2626C113.243 24.5239 113.926 24.8724 114.448 25.3079C115 25.7145 115.276 26.2952 115.276 27.0502C115.276 27.8052 114.942 28.4004 114.274 28.836C113.606 29.2425 112.662 29.4458 111.443 29.4458C110.223 29.4458 109.12 29.228 108.133 28.7924C107.145 28.3278 106.274 27.6309 105.519 26.7017L102.993 29.228C103.632 30.012 104.387 30.6944 105.258 31.2751Z" fill="#101011"/>
<path d="M115.35 4.94668V5.71859H114.421V8.06705H113.539V5.71859H112.609V4.94668H115.35Z" fill="#101011"/>
<path d="M118.972 4.8999V8.08109H118.09V6.53728L117.443 7.2624H117.179L116.533 6.53728V8.08109H115.651V4.8999H115.962L117.311 6.25658L118.66 4.8999H118.972Z" fill="#101011"/>
<path d="M4.08915 10.0236C5.30989 13.9377 9.47251 16.1211 13.3866 14.9004C17.3008 13.6796 26.5713 7.30667 25.3506 3.39255C24.1299 -0.521576 12.8801 -0.494664 8.96597 0.72607C5.05184 1.9468 2.86842 6.10943 4.08915 10.0236Z" fill="#101011"/>
<path d="M1.72304 31.486C4.02043 33.7834 7.74484 33.7834 10.0422 31.486C12.3396 29.1887 16.499 21.3045 14.202 19.0071C11.9046 16.7099 4.02043 20.8695 1.72304 23.1667C-0.574348 25.4641 -0.574348 29.1887 1.72304 31.486Z" fill="#101011"/>
<path d="M23.7032 33.7451C27.6637 34.8062 31.7344 32.4561 32.7957 28.4957C33.8566 24.5352 33.4281 13.2938 29.4677 12.2325C25.5072 11.1714 19.5153 20.6924 18.454 24.6528C17.3927 28.6131 19.7428 32.6839 23.7032 33.7451Z" fill="#101011"/>
</svg>
