<svg width="187" height="34" viewBox="0 0 187 34" fill="none" xmlns="http://www.w3.org/2000/svg">
<path d="M59.8837 30.3754C57.1918 30.3754 54.8123 29.8467 52.7452 28.7891C50.6781 27.7075 49.0798 26.1812 47.9501 24.2103C46.8204 22.2394 46.2556 19.92 46.2556 17.2521C46.2556 14.5841 46.8204 12.2647 47.9501 10.2938C49.0798 8.29883 50.6781 6.77257 52.7452 5.71501C54.8123 4.63341 57.1918 4.09261 59.8837 4.09261C61.7104 4.09261 63.3208 4.2849 64.7149 4.66947C66.133 5.03 67.4309 5.60685 68.6086 6.40002V11.6277C67.5511 10.7625 66.3373 10.1375 64.9673 9.75298C63.6213 9.34437 62.083 9.14007 60.3524 9.14007C58.7421 9.14007 57.2879 9.47657 55.99 10.1496C54.7161 10.7985 53.7066 11.7359 52.9615 12.9617C52.2164 14.1875 51.8439 15.6176 51.8439 17.2521C51.8439 18.9105 52.1804 20.3647 52.8534 21.6145C53.5504 22.8403 54.5238 23.7897 55.7737 24.4627C57.0235 25.1357 58.4657 25.4722 60.1001 25.4722C61.5903 25.4722 62.8882 25.2078 63.9938 24.679V19.8118H59.9198V15.7739H69.2936V27.9238C66.9141 29.5582 63.7775 30.3754 59.8837 30.3754Z" fill="#101011"/>
<path d="M70.5592 12.5291H75.823V15.0168C76.52 14.1755 77.4934 13.5386 78.7433 13.1059C79.9931 12.6493 81.4112 12.4209 82.9976 12.4209V16.567C81.3391 16.567 79.8729 16.8194 78.5991 17.3242C77.3492 17.8289 76.4839 18.598 76.0032 19.6316V29.8346H70.5592V12.5291Z" fill="#101011"/>
<path d="M93.4595 30.3754C90.1426 30.3754 87.5347 29.5823 85.6359 27.9959C83.7371 26.3855 82.7877 24.1382 82.7877 21.254C82.7877 18.3937 83.6289 16.1344 85.3114 14.476C87.018 12.8175 89.4455 11.9883 92.5942 11.9883C94.6612 11.9883 96.4158 12.3728 97.858 13.142C99.3001 13.9111 100.394 14.9807 101.139 16.3507C101.884 17.6967 102.256 19.223 102.256 20.9295V23.1287H87.9794C88.3639 25.34 90.431 26.4456 94.1805 26.4456C95.2862 26.4456 96.4279 26.3495 97.6056 26.1572C98.7833 25.9649 99.8048 25.7005 100.67 25.364V29.1857C99.8289 29.5462 98.7473 29.8346 97.4253 30.051C96.1034 30.2673 94.7814 30.3754 93.4595 30.3754ZM97.1008 19.5955C97.0287 18.4418 96.5961 17.5525 95.8029 16.9276C95.0098 16.2786 93.9161 15.9541 92.5221 15.9541C91.1521 15.9541 90.0705 16.2786 89.2773 16.9276C88.4841 17.5765 88.0515 18.4658 87.9794 19.5955H97.1008Z" fill="#101011"/>
<path d="M113.416 30.3754C110.099 30.3754 107.491 29.5823 105.592 27.9959C103.693 26.3855 102.744 24.1382 102.744 21.254C102.744 18.3937 103.585 16.1344 105.267 14.476C106.974 12.8175 109.402 11.9883 112.55 11.9883C114.617 11.9883 116.372 12.3728 117.814 13.142C119.256 13.9111 120.35 14.9807 121.095 16.3507C121.84 17.6967 122.213 19.223 122.213 20.9295V23.1287H107.935C108.32 25.34 110.387 26.4456 114.137 26.4456C115.242 26.4456 116.384 26.3495 117.562 26.1572C118.739 25.9649 119.761 25.7005 120.626 25.364V29.1857C119.785 29.5462 118.703 29.8346 117.381 30.051C116.059 30.2673 114.737 30.3754 113.416 30.3754ZM117.057 19.5955C116.985 18.4418 116.552 17.5525 115.759 16.9276C114.966 16.2786 113.872 15.9541 112.478 15.9541C111.108 15.9541 110.027 16.2786 109.233 16.9276C108.44 17.5765 108.008 18.4658 107.935 19.5955H117.057Z" fill="#101011"/>
<path d="M123.421 12.5291H128.685V14.6562C129.478 13.7669 130.415 13.1059 131.497 12.6733C132.602 12.2166 133.756 11.9883 134.958 11.9883C137.313 11.9883 139.068 12.6252 140.222 13.8991C141.399 15.1489 141.988 16.8435 141.988 18.9826V29.8346H136.544V19.5955C136.544 17.3602 135.511 16.2426 133.444 16.2426C132.53 16.2426 131.677 16.4709 130.884 16.9276C130.091 17.3602 129.418 18.0092 128.865 18.8744V29.8346H123.421V12.5291Z" fill="#101011"/>
<path d="M146.792 9.86114C145.951 9.86114 145.242 9.58473 144.665 9.03191C144.088 8.47909 143.799 7.78206 143.799 6.94082C143.799 6.12362 144.088 5.4386 144.665 4.88579C145.242 4.30893 145.951 4.02051 146.792 4.02051C147.633 4.02051 148.342 4.30893 148.919 4.88579C149.496 5.4386 149.784 6.12362 149.784 6.94082C149.784 7.78206 149.496 8.47909 148.919 9.03191C148.342 9.58473 147.633 9.86114 146.792 9.86114ZM144.052 12.5291H149.532V29.8346H144.052V12.5291Z" fill="#101011"/>
<path d="M158.817 30.3754C157.519 30.3754 156.125 30.2312 154.635 29.9428C153.168 29.6784 152.015 29.2938 151.173 28.7891V24.5348C152.135 25.1117 153.289 25.5804 154.635 25.9409C155.981 26.3014 157.23 26.4817 158.384 26.4817C159.37 26.4817 160.091 26.3976 160.547 26.2293C161.004 26.0611 161.232 25.7486 161.232 25.2919C161.232 24.9314 161.1 24.643 160.836 24.4267C160.571 24.1863 160.163 23.982 159.61 23.8137C159.081 23.6215 158.192 23.3451 156.942 22.9845C155.476 22.5519 154.322 22.1192 153.481 21.6866C152.664 21.2299 152.039 20.6651 151.606 19.9921C151.197 19.3191 150.993 18.4538 150.993 17.3963C150.993 15.5936 151.702 14.2476 153.12 13.3583C154.562 12.445 156.509 11.9883 158.961 11.9883C160.163 11.9883 161.401 12.1205 162.674 12.3849C163.972 12.6252 164.97 12.9497 165.667 13.3583V17.5044C164.97 17.0478 164.056 16.6752 162.927 16.3868C161.821 16.0983 160.74 15.9541 159.682 15.9541C158.697 15.9541 157.927 16.0503 157.375 16.2426C156.846 16.4348 156.581 16.7954 156.581 17.3242C156.581 17.7808 156.834 18.1293 157.339 18.3697C157.867 18.6101 158.841 18.9105 160.259 19.271L160.98 19.4513C162.494 19.8599 163.672 20.3166 164.513 20.8213C165.354 21.302 165.943 21.8909 166.28 22.5879C166.64 23.2609 166.821 24.1142 166.821 25.1477C166.821 26.7341 166.136 28.0079 164.765 28.9694C163.395 29.9067 161.413 30.3754 158.817 30.3754Z" fill="#101011"/>
<path d="M168.079 3.19128H173.523V14.512C174.34 13.6708 175.266 13.0458 176.299 12.6372C177.333 12.2046 178.438 11.9883 179.616 11.9883C181.972 11.9883 183.726 12.6252 184.88 13.8991C186.058 15.1489 186.646 16.8435 186.646 18.9826V29.8346H181.202V19.5955C181.202 17.3602 180.169 16.2426 178.102 16.2426C177.188 16.2426 176.335 16.4709 175.542 16.9276C174.749 17.3602 174.076 18.0092 173.523 18.8744V29.8346H168.079V3.19128Z" fill="#101011"/>
<path fill-rule="evenodd" clip-rule="evenodd" d="M27.6636 8.29224C27.6636 12.8719 23.951 16.5845 19.3713 16.5845C14.7917 16.5845 11.0791 12.8719 11.0791 8.29224C11.0791 3.71256 14.7917 0 19.3713 0C23.951 0 27.6636 3.71256 27.6636 8.29224ZM0.082732 15.9817C9.11693 15.3727 16.9905 22.1366 17.7239 31.1899C17.7999 32.128 17.7963 33.0543 17.7187 33.9619C8.68446 34.5709 0.81086 27.807 0.0774872 18.7537C0.00149196 17.8155 0.00512571 16.8893 0.082732 15.9817ZM23.5656 33.645C32.6189 32.9116 39.3828 25.038 38.7739 16.0039C37.8662 15.9262 36.94 15.9226 36.0019 15.9986C26.9486 16.732 20.1847 24.6055 20.7936 33.6397C21.7013 33.7173 22.6275 33.721 23.5656 33.645Z" fill="#101011"/>
</svg>
