<svg width="167" height="34" viewBox="0 0 167 34" fill="none" xmlns="http://www.w3.org/2000/svg">
<path d="M73.9427 31.7853C71.4125 31.7853 69.2401 31.338 67.4255 30.4435C65.611 29.549 64.1286 28.3862 62.9785 26.955C61.854 25.5237 61.0234 23.9647 60.4867 22.2779C59.95 20.5912 59.6816 18.9683 59.6816 17.4093V16.5659C59.6816 14.828 59.95 13.1156 60.4867 11.4288C61.049 9.74203 61.9051 8.20858 63.0552 6.82848C64.2053 5.44838 65.6621 4.34941 67.4255 3.53157C69.2146 2.68818 71.323 2.26648 73.751 2.26648C76.2812 2.26648 78.4791 2.72651 80.3448 3.64658C82.2361 4.54109 83.7439 5.81896 84.8685 7.4802C85.993 9.11587 86.6703 11.0327 86.9003 13.2306H81.4182C81.2138 11.9527 80.7537 10.8793 80.0381 10.0104C79.3481 9.11587 78.4663 8.45138 77.3929 8.0169C76.3195 7.55687 75.1055 7.32685 73.751 7.32685C72.3709 7.32685 71.1441 7.56965 70.0707 8.05524C68.9973 8.51527 68.1028 9.17976 67.3872 10.0487C66.6716 10.9177 66.1221 11.94 65.7387 13.1156C65.3809 14.2913 65.202 15.5947 65.202 17.0259C65.202 18.406 65.3809 19.6839 65.7387 20.8595C66.1221 22.0351 66.6844 23.0702 67.4255 23.9647C68.1667 24.8337 69.074 25.511 70.1474 25.9966C71.2464 26.4821 72.5115 26.7249 73.9427 26.7249C76.0384 26.7249 77.8018 26.2138 79.2331 25.1915C80.6898 24.1436 81.5716 22.6869 81.8782 20.8212H87.3603C87.1047 22.8147 86.4275 24.642 85.3285 26.3032C84.2295 27.9645 82.7216 29.2935 80.8048 30.2902C78.888 31.2869 76.6006 31.7853 73.9427 31.7853Z" fill="#101011"/>
<path d="M89.8839 31.0569V3.07154H95.2126V31.0569H89.8839ZM87.277 7.0585V3.07154H95.2126V7.0585H87.277Z" fill="#101011"/>
<path d="M109.385 31.7853C107.545 31.7853 105.922 31.4914 104.516 30.9036C103.111 30.3158 101.922 29.5235 100.951 28.5267C99.9799 27.5044 99.2387 26.3544 98.7276 25.0765C98.242 23.7986 97.9992 22.4696 97.9992 21.0895V20.2845C97.9992 18.8533 98.2548 17.4987 98.7659 16.2208C99.3026 14.9174 100.057 13.7673 101.028 12.7706C102.024 11.7483 103.226 10.956 104.631 10.3937C106.037 9.80592 107.622 9.51201 109.385 9.51201C111.148 9.51201 112.733 9.80592 114.139 10.3937C115.544 10.956 116.733 11.7483 117.704 12.7706C118.701 13.7673 119.455 14.9174 119.966 16.2208C120.477 17.4987 120.732 18.8533 120.732 20.2845V21.0895C120.732 22.4696 120.477 23.7986 119.966 25.0765C119.48 26.3544 118.752 27.5044 117.781 28.5267C116.809 29.5235 115.621 30.3158 114.215 30.9036C112.81 31.4914 111.2 31.7853 109.385 31.7853ZM109.385 27.2233C110.688 27.2233 111.787 26.9422 112.682 26.3799C113.576 25.7921 114.254 25.0126 114.714 24.0414C115.174 23.0447 115.404 21.9201 115.404 20.6678C115.404 19.39 115.161 18.2654 114.675 17.2942C114.215 16.2975 113.525 15.518 112.605 14.9557C111.711 14.3679 110.637 14.074 109.385 14.074C108.133 14.074 107.046 14.3679 106.126 14.9557C105.232 15.518 104.542 16.2975 104.056 17.2942C103.571 18.2654 103.328 19.39 103.328 20.6678C103.328 21.9201 103.558 23.0447 104.018 24.0414C104.504 25.0126 105.194 25.7921 106.088 26.3799C106.983 26.9422 108.082 27.2233 109.385 27.2233Z" fill="#101011"/>
<path d="M130.574 31.7086C128.171 31.7086 126.306 30.9164 124.977 29.3318C123.673 27.7472 123.022 25.396 123.022 22.2779V10.2021H128.35V22.738C128.35 24.0159 128.708 25.0381 129.424 25.8049C130.139 26.546 131.11 26.9166 132.337 26.9166C133.564 26.9166 134.561 26.5205 135.327 25.7282C136.12 24.9359 136.516 23.8625 136.516 22.508V10.2021H141.845V31.0569H137.628V22.2013H138.049C138.049 24.297 137.781 26.0477 137.244 27.4533C136.708 28.859 135.903 29.9196 134.829 30.6352C133.756 31.3508 132.414 31.7086 130.804 31.7086H130.574Z" fill="#101011"/>
<path d="M154.675 31.747C153.218 31.747 151.876 31.4786 150.649 30.9419C149.423 30.4052 148.362 29.6513 147.467 28.6801C146.573 27.7089 145.883 26.5844 145.397 25.3065C144.912 24.0031 144.669 22.5974 144.669 21.0895V20.2845C144.669 18.8021 144.899 17.4093 145.359 16.1058C145.845 14.8024 146.509 13.6651 147.352 12.6939C148.221 11.7227 149.256 10.9688 150.458 10.4321C151.684 9.86981 153.039 9.58868 154.521 9.58868C156.157 9.58868 157.588 9.94649 158.815 10.6621C160.067 11.3521 161.064 12.4 161.805 13.8057C162.546 15.2113 162.955 16.9748 163.032 19.096L161.46 17.2559V3.07154H166.789V31.0569H162.572V22.2013H163.492C163.415 24.3225 162.981 26.0988 162.188 27.53C161.396 28.9357 160.348 29.9963 159.045 30.7119C157.767 31.4019 156.31 31.747 154.675 31.747ZM155.863 27.2616C156.911 27.2616 157.869 27.0316 158.738 26.5716C159.607 26.086 160.297 25.396 160.808 24.5014C161.345 23.5814 161.613 22.508 161.613 21.2812V19.7478C161.613 18.521 161.345 17.4987 160.808 16.6809C160.272 15.8375 159.569 15.1985 158.7 14.7641C157.831 14.304 156.885 14.074 155.863 14.074C154.713 14.074 153.691 14.3551 152.796 14.9174C151.927 15.4541 151.237 16.2208 150.726 17.2176C150.24 18.2143 149.998 19.3772 149.998 20.7062C149.998 22.0351 150.253 23.198 150.764 24.1948C151.275 25.1659 151.966 25.9199 152.834 26.4566C153.729 26.9933 154.739 27.2616 155.863 27.2616Z" fill="#101011"/>
<path d="M39.6054 34C37.7642 34 36.6298 33.15 34.7765 32.1489C32.9232 31.1479 27.5631 27.1173 27.5631 22.1C27.5631 18.6964 26.6858 15.9436 25.1916 13.7497C23.7085 11.5727 21.6995 10.0644 19.6093 8.99971C18.6022 8.48672 17.5541 8.06725 16.5104 7.72056C15.9019 7.51857 15.5489 6.8653 15.8128 6.2812C17.486 2.57712 21.2122 0 25.5408 0C31.433 0 36.2098 4.77655 36.2098 10.669C36.2098 11.9296 35.9912 13.1393 35.5897 14.2618C37.2903 13.1158 39.3392 12.447 41.5441 12.447C47.4363 12.447 52.2131 17.2236 52.2131 23.116C52.2131 30.2096 45.9798 34 39.6054 34Z" fill="#101011"/>
<path d="M0.646484 22.227C0.646484 27.8508 4.35417 32.5366 9.26601 33.572C10.0242 33.8489 10.8426 34 11.6965 34H28.2729C28.8287 34 29.0708 33.2565 28.6464 32.8974C25.7494 30.4462 23.5965 26.9916 23.5965 22.1C23.5965 19.4122 22.9158 17.4546 21.9131 15.9829C20.899 14.4943 19.4727 13.3817 17.8089 12.5339C16.1297 11.6786 14.3065 11.1338 12.5656 10.7476C12.1555 10.6958 11.7383 10.669 11.3155 10.669C5.42303 10.669 0.646484 15.8437 0.646484 22.227Z" fill="#101011"/>
</svg>
