<svg width="151" height="34" viewBox="0 0 151 34" fill="none" xmlns="http://www.w3.org/2000/svg">
<path d="M65.6301 5.07698C66.1508 5.62373 66.9449 5.89711 68.0124 5.89711C69.0798 5.89711 69.8609 5.62373 70.3556 5.07698C70.8503 4.50419 71.0976 3.80123 71.0976 2.96808C71.0976 2.08286 70.8503 1.36688 70.3556 0.820128C69.8609 0.273375 69.0798 0 68.0124 0C66.9449 0 66.1508 0.273375 65.6301 0.820128C65.1354 1.36688 64.8881 2.08286 64.8881 2.96808C64.8881 3.80123 65.1354 4.50419 65.6301 5.07698Z" fill="#101011"/>
<path d="M40.8384 8.43559L47.4775 29.6417H56.1865L61.9274 8.43559H56.6942L52.3745 25.1896H51.4523L46.4231 8.43559H40.8384Z" fill="#101011"/>
<path d="M83.4462 30.3057C80.5302 30.3057 78.239 29.6938 76.5728 28.4701C74.9325 27.2204 74.0733 25.502 73.9952 23.315H78.8769C78.955 24.044 79.3586 24.708 80.0876 25.3068C80.8166 25.9056 81.9622 26.205 83.5243 26.205C84.8261 26.205 85.8545 25.9707 86.6096 25.5021C87.3906 25.0334 87.7812 24.3955 87.7812 23.5884C87.7812 22.8855 87.4818 22.3257 86.8829 21.9091C86.3101 21.4925 85.3208 21.2192 83.9148 21.089L82.0403 20.8937C79.671 20.6334 77.8485 19.9564 76.5728 18.8629C75.297 17.7694 74.6591 16.3114 74.6591 14.4889C74.6591 13.0309 75.0236 11.8072 75.7526 10.8179C76.4816 9.82851 77.484 9.08649 78.7598 8.59181C80.0616 8.07109 81.5456 7.81074 83.2119 7.81074C85.8155 7.81074 87.9244 8.38352 89.5386 9.5291C91.1528 10.6747 91.999 12.354 92.0771 14.567H87.1954C87.1433 13.838 86.7788 13.2132 86.1019 12.6924C85.4249 12.1717 84.4486 11.9114 83.1728 11.9114C82.0272 11.9114 81.142 12.1327 80.5172 12.5753C79.8923 13.0179 79.5799 13.5907 79.5799 14.2936C79.5799 14.9706 79.8272 15.4913 80.3219 15.8558C80.8426 16.2203 81.6758 16.4676 82.8213 16.5978L84.6959 16.7931C87.1954 17.0534 89.148 17.7434 90.554 18.8629C91.9859 19.9825 92.7019 21.4925 92.7019 23.3932C92.7019 24.7991 92.3114 26.0228 91.5303 27.0642C90.7753 28.0796 89.7078 28.8737 88.3279 29.4465C86.948 30.0193 85.3208 30.3057 83.4462 30.3057Z" fill="#101011"/>
<path d="M95.8586 5.07698C96.3793 5.62373 97.1734 5.89711 98.2408 5.89711C99.3083 5.89711 100.089 5.62373 100.584 5.07698C101.079 4.50419 101.326 3.80123 101.326 2.96808C101.326 2.08286 101.079 1.36688 100.584 0.820128C100.089 0.273375 99.3083 0 98.2408 0C97.1734 0 96.3793 0.273375 95.8586 0.820128C95.3639 1.36688 95.1165 2.08286 95.1165 2.96808C95.1165 3.80123 95.3639 4.50419 95.8586 5.07698Z" fill="#101011"/>
<path fill-rule="evenodd" clip-rule="evenodd" d="M116.174 30.3838C114.3 30.3838 112.646 30.0843 111.214 29.4855C109.782 28.8867 108.572 28.0796 107.582 27.0642C106.593 26.0228 105.838 24.8512 105.317 23.5494C104.822 22.2476 104.575 20.8937 104.575 19.4878V18.6677C104.575 17.2097 104.836 15.8298 105.356 14.528C105.903 13.2001 106.671 12.0285 107.66 11.0131C108.676 9.9717 109.899 9.1646 111.331 8.59181C112.763 7.99299 114.378 7.69357 116.174 7.69357C117.971 7.69357 119.585 7.99299 121.017 8.59181C122.449 9.1646 123.659 9.9717 124.649 11.0131C125.664 12.0285 126.432 13.2001 126.953 14.528C127.474 15.8298 127.734 17.2097 127.734 18.6677V19.4878C127.734 20.8937 127.474 22.2476 126.953 23.5494C126.458 24.8512 125.716 26.0228 124.727 27.0642C123.738 28.0796 122.527 28.8867 121.095 29.4855C119.663 30.0843 118.023 30.3838 116.174 30.3838ZM116.174 25.7364C117.502 25.7364 118.621 25.45 119.533 24.8772C120.444 24.2784 121.134 23.4843 121.603 22.4949C122.071 21.4795 122.306 20.3339 122.306 19.0582C122.306 17.7564 122.058 16.6108 121.564 15.6215C121.095 14.6061 120.392 13.812 119.455 13.2392C118.543 12.6404 117.45 12.341 116.174 12.341C114.898 12.341 113.792 12.6404 112.855 13.2392C111.943 13.812 111.24 14.6061 110.746 15.6215C110.251 16.6108 110.004 17.7564 110.004 19.0582C110.004 20.3339 110.238 21.4795 110.707 22.4949C111.201 23.4843 111.904 24.2784 112.815 24.8772C113.727 25.45 114.846 25.7364 116.174 25.7364Z" fill="#101011"/>
<path d="M135.299 12.1457C135.113 12.6122 134.956 13.1174 134.83 13.6614V8.43559H130.535V29.6417H135.963V17.1836C135.963 15.8037 136.367 14.7102 137.174 13.9031C138.007 13.07 139.087 12.6534 140.415 12.6534C141.717 12.6534 142.732 13.0569 143.461 13.8641C144.216 14.6712 144.594 15.7256 144.594 17.0274V29.6417H150.022V17.496C150.022 14.2676 149.371 11.8463 148.07 10.2321C146.768 8.59181 144.854 7.77168 142.329 7.77168H142.094C140.402 7.77168 138.983 8.13618 137.838 8.86518C136.718 9.59419 135.872 10.6877 135.299 12.1457Z" fill="#101011"/>
<path d="M66.0206 12.4972V29.6417H71.4491V8.43559H63.0526V12.4972H66.0206Z" fill="#101011"/>
<path d="M96.2491 12.4972V29.6417H101.678V8.43559H93.281V12.4972H96.2491Z" fill="#101011"/>
<mask id="path-2-inside-1_843_584" fill="white">
<path fill-rule="evenodd" clip-rule="evenodd" d="M17.3616 34C26.7504 34 34.3616 26.3888 34.3616 17C34.3616 7.61116 26.7504 0 17.3616 0C7.97273 0 0.361572 7.61116 0.361572 17C0.361572 26.3888 7.97273 34 17.3616 34ZM29.874 15.2361C28.2889 17.0898 26.056 18.2442 23.5823 18.2442C18.7734 18.2442 14.875 13.8817 14.875 8.50025C14.875 7.14637 15.1217 5.85698 15.5676 4.68532C9.54164 5.60055 4.92398 10.8036 4.92398 17.0852C4.92398 18.918 5.31709 20.6589 6.02358 22.2284C6.74025 21.5616 7.74748 21.1467 8.86301 21.1467C11.0385 21.1467 12.802 22.7246 12.802 24.6711C12.802 25.9781 12.0069 27.119 10.8257 27.7275C12.7516 28.9318 15.0278 29.6279 17.4667 29.6279C24.3938 29.6279 30.0094 24.0123 30.0094 17.0852C30.0094 16.457 29.9632 15.8395 29.874 15.2361Z"/>
</mask>
<path fill-rule="evenodd" clip-rule="evenodd" d="M17.3616 34C26.7504 34 34.3616 26.3888 34.3616 17C34.3616 7.61116 26.7504 0 17.3616 0C7.97273 0 0.361572 7.61116 0.361572 17C0.361572 26.3888 7.97273 34 17.3616 34ZM29.874 15.2361C28.2889 17.0898 26.056 18.2442 23.5823 18.2442C18.7734 18.2442 14.875 13.8817 14.875 8.50025C14.875 7.14637 15.1217 5.85698 15.5676 4.68532C9.54164 5.60055 4.92398 10.8036 4.92398 17.0852C4.92398 18.918 5.31709 20.6589 6.02358 22.2284C6.74025 21.5616 7.74748 21.1467 8.86301 21.1467C11.0385 21.1467 12.802 22.7246 12.802 24.6711C12.802 25.9781 12.0069 27.119 10.8257 27.7275C12.7516 28.9318 15.0278 29.6279 17.4667 29.6279C24.3938 29.6279 30.0094 24.0123 30.0094 17.0852C30.0094 16.457 29.9632 15.8395 29.874 15.2361Z" fill="#101011"/>
<path d="M29.874 15.2361L32.5188 14.8453L31.6602 9.03378L27.8421 13.4985L29.874 15.2361ZM15.5676 4.68532L18.0663 5.6363L19.6961 1.35408L15.1662 2.04209L15.5676 4.68532ZM6.02358 22.2284L3.58565 23.3258L5.11566 26.7247L7.84464 24.1858L6.02358 22.2284ZM10.8257 27.7275L9.60127 25.3508L5.42408 27.5029L9.40821 29.9943L10.8257 27.7275ZM31.688 17C31.688 24.9123 25.2739 31.3265 17.3616 31.3265V36.6735C28.227 36.6735 37.0351 27.8654 37.0351 17H31.688ZM17.3616 2.67355C25.2739 2.67355 31.688 9.08772 31.688 17H37.0351C37.0351 6.1346 28.227 -2.67355 17.3616 -2.67355V2.67355ZM3.03512 17C3.03512 9.08772 9.44929 2.67355 17.3616 2.67355V-2.67355C6.49617 -2.67355 -2.31197 6.1346 -2.31197 17H3.03512ZM17.3616 31.3265C9.44929 31.3265 3.03512 24.9123 3.03512 17H-2.31197C-2.31197 27.8654 6.49617 36.6735 17.3616 36.6735V31.3265ZM23.5823 20.9177C26.924 20.9177 29.8718 19.3523 31.9059 16.9737L27.8421 13.4985C26.7059 14.8272 25.1881 15.5706 23.5823 15.5706V20.9177ZM12.2014 8.50025C12.2014 15.0675 17.022 20.9177 23.5823 20.9177V15.5706C20.5248 15.5706 17.5485 12.6958 17.5485 8.50025H12.2014ZM13.0689 3.73434C12.5076 5.20913 12.2014 6.82074 12.2014 8.50025H17.5485C17.5485 7.47199 17.7358 6.50482 18.0663 5.6363L13.0689 3.73434ZM7.59753 17.0852C7.59753 12.145 11.2299 8.04834 15.9691 7.32855L15.1662 2.04209C7.85336 3.15276 2.25044 9.46222 2.25044 17.0852H7.59753ZM8.4615 21.1309C7.90726 19.8997 7.59753 18.5322 7.59753 17.0852H2.25044C2.25044 19.3037 2.72691 21.4181 3.58565 23.3258L8.4615 21.1309ZM8.86301 18.4732C7.08573 18.4732 5.42403 19.1345 4.20251 20.2709L7.84464 24.1858C8.05647 23.9887 8.40922 23.8203 8.86301 23.8203V18.4732ZM15.4756 24.6711C15.4756 20.9762 12.2276 18.4732 8.86301 18.4732V23.8203C9.30508 23.8203 9.65197 23.9803 9.86561 24.1714C10.0746 24.3584 10.1285 24.5391 10.1285 24.6711H15.4756ZM12.0502 30.1042C13.9834 29.1082 15.4756 27.1252 15.4756 24.6711H10.1285C10.1285 24.831 10.0303 25.1298 9.60127 25.3508L12.0502 30.1042ZM17.4667 26.9543C15.5436 26.9543 13.7565 26.4069 12.2432 25.4607L9.40821 29.9943C11.7467 31.4566 14.5121 32.3014 17.4667 32.3014V26.9543ZM27.3358 17.0852C27.3358 22.5357 22.9172 26.9543 17.4667 26.9543V32.3014C25.8704 32.3014 32.6829 25.4889 32.6829 17.0852H27.3358ZM27.2292 15.6269C27.2993 16.1014 27.3358 16.5882 27.3358 17.0852H32.6829C32.6829 16.3257 32.6271 15.5777 32.5188 14.8453L27.2292 15.6269Z" fill="#101011" mask="url(#path-2-inside-1_843_584)"/>
</svg>
